<mxfile host="Electron" modified="2024-01-17T18:31:55.991Z" agent="Mozilla/5.0 (Windows NT 10.0; Win64; x64) AppleWebKit/537.36 (KHTML, like Gecko) draw.io/22.1.16 Chrome/120.0.6099.109 Electron/28.1.0 Safari/537.36" etag="J_BoYkJLYaaBtgVdo5wt" version="22.1.16" type="device">
  <diagram name="Страница — 1" id="R87gwawpsRX5DZW33Yvw">
    <mxGraphModel dx="2208" dy="1988" grid="1" gridSize="10" guides="1" tooltips="1" connect="1" arrows="1" fold="1" page="1" pageScale="1" pageWidth="827" pageHeight="1169" math="0" shadow="0">
      <root>
        <mxCell id="0" />
        <mxCell id="1" parent="0" />
        <mxCell id="hZTHAR6i0K3fFT6IlkUh-630" value="Алгоритм Запуска атаки" style="swimlane;whiteSpace=wrap;html=1;startSize=23;" vertex="1" parent="1">
          <mxGeometry x="-380" y="-340" width="360" height="220" as="geometry" />
        </mxCell>
        <mxCell id="hZTHAR6i0K3fFT6IlkUh-631" style="edgeStyle=orthogonalEdgeStyle;rounded=0;orthogonalLoop=1;jettySize=auto;html=1;exitX=1;exitY=0.5;exitDx=0;exitDy=0;entryX=0.5;entryY=0;entryDx=0;entryDy=0;" edge="1" parent="hZTHAR6i0K3fFT6IlkUh-630" source="hZTHAR6i0K3fFT6IlkUh-632" target="hZTHAR6i0K3fFT6IlkUh-634">
          <mxGeometry relative="1" as="geometry" />
        </mxCell>
        <mxCell id="hZTHAR6i0K3fFT6IlkUh-632" value="Вызов анимации удара" style="rounded=0;whiteSpace=wrap;html=1;" vertex="1" parent="hZTHAR6i0K3fFT6IlkUh-630">
          <mxGeometry x="10" y="30" width="120" height="60" as="geometry" />
        </mxCell>
        <mxCell id="hZTHAR6i0K3fFT6IlkUh-633" style="edgeStyle=orthogonalEdgeStyle;rounded=0;orthogonalLoop=1;jettySize=auto;html=1;exitX=0.5;exitY=1;exitDx=0;exitDy=0;entryX=1;entryY=0.5;entryDx=0;entryDy=0;" edge="1" parent="hZTHAR6i0K3fFT6IlkUh-630" source="hZTHAR6i0K3fFT6IlkUh-634" target="hZTHAR6i0K3fFT6IlkUh-635">
          <mxGeometry relative="1" as="geometry" />
        </mxCell>
        <mxCell id="hZTHAR6i0K3fFT6IlkUh-634" value="Unity.timer" style="rounded=0;whiteSpace=wrap;html=1;" vertex="1" parent="hZTHAR6i0K3fFT6IlkUh-630">
          <mxGeometry x="180" y="90" width="120" height="60" as="geometry" />
        </mxCell>
        <mxCell id="hZTHAR6i0K3fFT6IlkUh-635" value="Алгоритм успешности атаки" style="rounded=0;whiteSpace=wrap;html=1;" vertex="1" parent="hZTHAR6i0K3fFT6IlkUh-630">
          <mxGeometry x="10" y="140" width="120" height="60" as="geometry" />
        </mxCell>
      </root>
    </mxGraphModel>
  </diagram>
</mxfile>
